<svg width="58" height="58" viewBox="0 0 58 58" fill="none" xmlns="http://www.w3.org/2000/svg">
<path d="M28.9528 25.9368L50.9056 13.9625C50.2074 11.6654 48.7913 9.65251 46.865 8.21941C44.9387 6.78631 42.6037 6.00845 40.2028 6H17.7028C15.3019 6.00845 12.9669 6.78631 11.0406 8.21941C9.11434 9.65251 7.69817 11.6654 7 13.9625L28.9528 25.9368Z" fill="#9156FF"/>
<path d="M29 33.4999C29.3766 33.4999 29.7471 33.4055 30.0778 33.2253L51.5 21.5403V38V44.25C51.5 47.0114 49.2614 49.25 46.5 49.25H17.75C11 49.25 9.49996 51.5 6.5 51.5C6.5 48.2011 6.50351 40.9826 6.5 38V21.5403L27.9223 33.2253C28.2529 33.4055 28.6234 33.4999 29 33.4999Z" fill="#FF394B"/>
<mask id="mask0_304:960" style="mask-type:alpha" maskUnits="userSpaceOnUse" x="6" y="21" width="46" height="31">
<path d="M30.0778 33.2253C29.7471 33.4055 29.3766 33.4999 29 33.4999C28.6234 33.4999 28.2529 33.4055 27.9223 33.2253L6.5 21.5403V38C6.50351 40.9826 6.5 48.2011 6.5 51.5C9.49996 51.5 11 49.25 17.75 49.25H40.25C43.2326 49.2465 46.092 48.0601 48.2011 45.9511C50.3101 43.842 51.4965 40.9826 51.5 38V21.5403L30.0778 33.2253Z" fill="#FF394B"/>
</mask>
<g mask="url(#mask0_304:960)">
<rect x="-11.154" y="27.5538" width="42" height="25.1105" transform="rotate(-29.1516 -11.154 27.5538)" fill="#FF6B79"/>
</g>
<mask id="mask1_304:960" style="mask-type:alpha" maskUnits="userSpaceOnUse" x="7" y="6" width="44" height="20">
<path d="M28.9528 25.9368L50.9056 13.9625C50.2074 11.6654 48.7913 9.65251 46.865 8.21941C44.9387 6.78631 42.6037 6.00845 40.2028 6H17.7028C15.3019 6.00845 12.9669 6.78631 11.0406 8.21941C9.11434 9.65251 7.69817 11.6654 7 13.9625L28.9528 25.9368Z" fill="#B289FF"/>
</mask>
<g mask="url(#mask1_304:960)">
<rect x="3.17017" y="5.76355" width="42" height="19.4676" transform="rotate(-29.1516 3.17017 5.76355)" fill="#B289FF"/>
</g>
</svg>
